<?xml version="1.0" standalone="no"?>
<!DOCTYPE svg PUBLIC "-//W3C//DTD SVG 20010904//EN"
 "http://www.w3.org/TR/2001/REC-SVG-20010904/DTD/svg10.dtd">
<svg version="1.0" xmlns="http://www.w3.org/2000/svg"
 width="1008.000000pt" height="1008.000000pt" viewBox="0 0 1008.000000 1008.000000"
 preserveAspectRatio="xMidYMid meet">
<metadata>
Created by potrace 1.14, written by Peter Selinger 2001-2017
</metadata>
<g transform="translate(0.000000,1008.000000) scale(0.100000,-0.100000)"
fill="#000000" stroke="none">
<path d="M2835 8474 c-332 -37 -588 -109 -850 -238 -749 -370 -1229 -1056
-1337 -1911 -10 -77 -13 -484 -13 -1775 l0 -1675 55 -6 c30 -3 43 -6 28 -7
-33 -2 -32 3 -14 -93 56 -291 173 -408 466 -467 79 -16 295 -17 2975 -17 3067
0 2968 -1 3265 47 293 47 536 133 796 282 323 185 603 452 802 763 163 257
283 558 330 833 45 264 67 516 41 480 -9 -12 -10 -11 -4 5 8 25 24 107 31 159
2 21 7 42 9 46 5 8 10 51 25 225 11 127 13 1503 3 2603 l-6 752 -3286 -1
c-1807 -1 -3299 -4 -3316 -5z m3119 -206 c3 -29 13 -253 21 -498 l16 -445 -21
-75 c-35 -120 -36 -141 -6 -169 14 -14 26 -33 26 -43 0 -24 43 -41 73 -28 23
9 138 28 172 28 37 0 140 -42 230 -93 50 -28 246 -140 438 -249 264 -151 347
-203 347 -217 0 -10 -6 -19 -13 -19 -7 0 -71 18 -142 41 -72 23 -146 45 -165
51 -19 5 -60 18 -90 28 -77 25 -193 62 -420 132 -220 67 -317 110 -374 162
-52 47 -67 51 -115 25 -32 -16 -51 -20 -85 -15 -51 8 -51 8 -97 -98 -51 -119
-99 -166 -233 -230 -310 -150 -823 -387 -840 -389 -12 -1 -22 5 -24 14 -2 12
44 53 150 132 84 64 176 133 203 154 28 21 154 117 280 214 239 183 278 208
376 239 53 17 62 18 94 5 19 -8 59 -15 89 -15 44 0 59 5 76 22 11 12 20 29 20
37 -1 13 -3 13 -14 -2 -32 -42 -127 -37 -208 11 -36 21 -35 34 5 56 72 42 127
80 127 88 0 5 -20 44 -45 87 -87 150 -90 185 -41 456 13 77 43 246 66 375 22
129 43 245 45 258 4 17 12 22 39 22 34 0 35 -1 40 -52z m236 -1177 c0 -12
-171 -13 -190 -1 -10 7 18 10 88 10 56 0 102 -4 102 -9z m66 -38 c-6 -6 -36 9
-36 18 0 5 9 4 20 -3 10 -7 18 -14 16 -15z m-3846 -330 c0 -27 5 -158 10 -293
17 -389 16 -438 -4 -497 -10 -29 -15 -57 -11 -63 3 -5 22 -10 41 -10 19 0 33
-4 30 -9 -3 -5 -15 -7 -26 -4 -23 6 -26 -5 -7 -30 11 -16 19 -16 92 -3 44 8
85 11 90 7 6 -4 26 -14 45 -21 38 -15 189 -100 285 -160 33 -20 117 -70 187
-111 71 -40 124 -77 120 -81 -7 -7 -41 2 -288 82 -50 17 -98 30 -106 30 -19 0
-314 97 -347 115 -14 7 -37 25 -50 39 -26 27 -50 33 -68 15 -5 -5 -30 -11 -53
-12 -43 -2 -43 -2 -82 -77 -21 -41 -51 -85 -67 -97 -24 -19 -161 -86 -438
-214 -216 -100 -213 -99 -213 -76 0 13 23 31 376 297 247 187 278 203 379 193
64 -6 95 4 95 30 0 7 -4 7 -12 -1 -16 -16 -71 -15 -114 3 -38 16 -41 33 -8 50
37 20 74 47 74 56 0 4 -13 29 -30 55 -51 82 -56 128 -26 294 14 80 37 213 51
295 39 220 45 245 61 245 10 0 14 -13 14 -47z m3626 16 l34 -21 0 -1649 0
-1649 1103 -2 1102 -3 -85 -51 c-47 -29 -118 -68 -157 -88 l-73 -36 -3580 0
-3580 0 0 90 0 90 794 0 793 0 7 253 c16 613 26 1065 32 1500 5 303 11 467 17
467 6 0 19 -7 29 -17 17 -15 18 -63 18 -1110 l0 -1093 1715 0 1715 0 0 98 c0
53 7 392 15 752 8 360 19 948 24 1305 15 955 22 1185 34 1185 5 0 25 -9 43
-21z m-3446 -889 c10 -7 -1 -9 -37 -7 -29 2 -56 6 -59 10 -11 11 79 8 96 -3z
m6785 -1202 c-4 -13 -12 -27 -18 -33 -7 -7 -8 -4 -2 10 4 11 8 26 8 33 0 6 4
12 9 12 5 0 6 -10 3 -22z m-34 -91 c-10 -9 -11 -8 -5 6 3 10 9 15 12 12 3 -3
0 -11 -7 -18z"/>
</g>
</svg>
